# MagicaVoxel @ Ephtracy

# group
o 

# material
mtllib glider.mtl
usemtl palette

# normals
vn -1 0 0
vn 1 0 0
vn 0 0 1
vn 0 0 -1
vn 0 -1 0
vn 0 1 0

# texcoords
vt 0.447266 0.5
vt 0.537109 0.5
vt 0.701172 0.5
vt 0.958984 0.5

# verts
v -1 1.8 -1
v -1 1.8 -1.1
v -1 1.9 -0.9
v -1 1.9 -1
v -1 1.9 -1.1
v -1 2 -0.9
v -1 2 -1.1
v -0.9 1.8 -0.8
v -0.9 1.8 -1
v -0.9 1.9 -0.7
v -0.9 1.9 -0.8
v -0.9 1.9 -0.9
v -0.9 1.9 -1
v -0.9 2 -0.7
v -0.9 2 -0.9
v -0.8 1.8 -0.6
v -0.8 1.8 -0.8
v -0.8 1.9 -0.5
v -0.8 1.9 -0.6
v -0.8 1.9 -0.7
v -0.8 1.9 -0.8
v -0.8 2 -0.5
v -0.8 2 -0.7
v -0.7 1.8 -0.4
v -0.7 1.8 -0.6
v -0.7 1.9 -0.3
v -0.7 1.9 -0.4
v -0.7 1.9 -0.5
v -0.7 1.9 -0.6
v -0.7 2 -0.3
v -0.7 2 -0.5
v -0.6 1.8 -0.2
v -0.6 1.8 -0.4
v -0.6 1.9 -0.1
v -0.6 1.9 -0.2
v -0.6 1.9 -0.3
v -0.6 1.9 -0.4
v -0.6 2 -0.1
v -0.6 2 -0.3
v -0.5 1.8 0
v -0.5 1.8 -0.2
v -0.5 1.9 0.1
v -0.5 1.9 0
v -0.5 1.9 -0.1
v -0.5 1.9 -0.2
v -0.5 2 0.1
v -0.5 2 -0.1
v -0.4 1.8 0.2
v -0.4 1.8 0
v -0.4 1.9 0.3
v -0.4 1.9 0.2
v -0.4 1.9 0.1
v -0.4 1.9 0
v -0.4 2 0.3
v -0.4 2 0.1
v -0.3 1.8 0.4
v -0.3 1.8 0.2
v -0.3 1.9 0.5
v -0.3 1.9 0.4
v -0.3 1.9 0.3
v -0.3 1.9 0.2
v -0.3 2 0.5
v -0.3 2 0.3
v -0.2 1.8 0.6
v -0.2 1.8 0.4
v -0.2 1.9 0.7
v -0.2 1.9 0.6
v -0.2 1.9 0.5
v -0.2 1.9 0.4
v -0.2 2 0.7
v -0.2 2 0.5
v -0.1 1.8 0.8
v -0.1 1.8 0.6
v -0.1 1.9 0.9
v -0.1 1.9 0.8
v -0.1 1.9 0.7
v -0.1 1.9 0.6
v -0.1 2 0.9
v -0.1 2 0.7
v 0.1 1.8 0.8
v 0.1 1.8 0.6
v 0.1 1.9 0.9
v 0.1 1.9 0.8
v 0.1 1.9 0.7
v 0.1 1.9 0.6
v 0.1 2 0.9
v 0.1 2 0.7
v 0.2 1.8 0.6
v 0.2 1.8 0.4
v 0.2 1.9 0.7
v 0.2 1.9 0.6
v 0.2 1.9 0.5
v 0.2 1.9 0.4
v 0.2 2 0.7
v 0.2 2 0.5
v 0.3 1.8 0.4
v 0.3 1.8 0.2
v 0.3 1.9 0.5
v 0.3 1.9 0.4
v 0.3 1.9 0.3
v 0.3 1.9 0.2
v 0.3 2 0.5
v 0.3 2 0.3
v 0.4 1.8 0.2
v 0.4 1.8 0
v 0.4 1.9 0.3
v 0.4 1.9 0.2
v 0.4 1.9 0.1
v 0.4 1.9 0
v 0.4 2 0.3
v 0.4 2 0.1
v 0.5 1.8 0
v 0.5 1.8 -0.2
v 0.5 1.9 0.1
v 0.5 1.9 0
v 0.5 1.9 -0.1
v 0.5 1.9 -0.2
v 0.5 2 0.1
v 0.5 2 -0.1
v 0.6 1.8 -0.2
v 0.6 1.8 -0.4
v 0.6 1.9 -0.1
v 0.6 1.9 -0.2
v 0.6 1.9 -0.3
v 0.6 1.9 -0.4
v 0.6 2 -0.1
v 0.6 2 -0.3
v 0.7 1.8 -0.4
v 0.7 1.8 -0.6
v 0.7 1.9 -0.3
v 0.7 1.9 -0.4
v 0.7 1.9 -0.5
v 0.7 1.9 -0.6
v 0.7 2 -0.3
v 0.7 2 -0.5
v 0.8 1.8 -0.6
v 0.8 1.8 -0.8
v 0.8 1.9 -0.5
v 0.8 1.9 -0.6
v 0.8 1.9 -0.7
v 0.8 1.9 -0.8
v 0.8 2 -0.5
v 0.8 2 -0.7
v 0.9 1.8 -0.8
v 0.9 1.8 -1
v 0.9 1.9 -0.7
v 0.9 1.9 -0.8
v 0.9 1.9 -0.9
v 0.9 1.9 -1
v 0.9 2 -0.7
v 0.9 2 -0.9
v 1 1.8 -1
v 1 1.8 -1.1
v 1 1.9 -0.9
v 1 1.9 -1
v 1 1.9 -1.1
v 1 2 -0.9
v 1 2 -1.1
v -0.1 1.9 0.9
v -0.1 2 0.9
v 0.1 1.9 0.9
v 0.1 2 0.9
v -0.1 1.8 0.8
v -0.1 1.9 0.8
v 0.1 1.8 0.8
v 0.1 1.9 0.8
v -0.2 1.9 0.7
v -0.2 2 0.7
v -0.1 1.9 0.7
v -0.1 2 0.7
v 0.1 1.9 0.7
v 0.1 2 0.7
v 0.2 1.9 0.7
v 0.2 2 0.7
v -0.2 1.8 0.6
v -0.2 1.9 0.6
v -0.1 1.8 0.6
v -0.1 1.9 0.6
v 0.1 1.8 0.6
v 0.1 1.9 0.6
v 0.2 1.8 0.6
v 0.2 1.9 0.6
v -0.3 1.9 0.5
v -0.3 2 0.5
v -0.2 1.9 0.5
v -0.2 2 0.5
v 0.2 1.9 0.5
v 0.2 2 0.5
v 0.3 1.9 0.5
v 0.3 2 0.5
v -0.3 1.8 0.4
v -0.3 1.9 0.4
v -0.2 1.8 0.4
v -0.2 1.9 0.4
v 0.2 1.8 0.4
v 0.2 1.9 0.4
v 0.3 1.8 0.4
v 0.3 1.9 0.4
v -0.4 1.9 0.3
v -0.4 2 0.3
v -0.3 1.9 0.3
v -0.3 2 0.3
v 0.3 1.9 0.3
v 0.3 2 0.3
v 0.4 1.9 0.3
v 0.4 2 0.3
v -0.4 1.8 0.2
v -0.4 1.9 0.2
v -0.3 1.8 0.2
v -0.3 1.9 0.2
v 0.3 1.8 0.2
v 0.3 1.9 0.2
v 0.4 1.8 0.2
v 0.4 1.9 0.2
v -0.5 1.9 0.1
v -0.5 2 0.1
v -0.4 1.9 0.1
v -0.4 2 0.1
v 0.4 1.9 0.1
v 0.4 2 0.1
v 0.5 1.9 0.1
v 0.5 2 0.1
v -0.5 1.8 0
v -0.5 1.9 0
v -0.4 1.8 0
v -0.4 1.9 0
v 0.4 1.8 0
v 0.4 1.9 0
v 0.5 1.8 0
v 0.5 1.9 0
v -0.6 1.9 -0.1
v -0.6 2 -0.1
v -0.5 1.9 -0.1
v -0.5 2 -0.1
v 0.5 1.9 -0.1
v 0.5 2 -0.1
v 0.6 1.9 -0.1
v 0.6 2 -0.1
v -0.6 1.8 -0.2
v -0.6 1.9 -0.2
v -0.5 1.8 -0.2
v -0.5 1.9 -0.2
v 0.5 1.8 -0.2
v 0.5 1.9 -0.2
v 0.6 1.8 -0.2
v 0.6 1.9 -0.2
v -0.7 1.9 -0.3
v -0.7 2 -0.3
v -0.6 1.9 -0.3
v -0.6 2 -0.3
v 0.6 1.9 -0.3
v 0.6 2 -0.3
v 0.7 1.9 -0.3
v 0.7 2 -0.3
v -0.7 1.8 -0.4
v -0.7 1.9 -0.4
v -0.6 1.8 -0.4
v -0.6 1.9 -0.4
v 0.6 1.8 -0.4
v 0.6 1.9 -0.4
v 0.7 1.8 -0.4
v 0.7 1.9 -0.4
v -0.8 1.9 -0.5
v -0.8 2 -0.5
v -0.7 1.9 -0.5
v -0.7 2 -0.5
v 0.7 1.9 -0.5
v 0.7 2 -0.5
v 0.8 1.9 -0.5
v 0.8 2 -0.5
v -0.8 1.8 -0.6
v -0.8 1.9 -0.6
v -0.7 1.8 -0.6
v -0.7 1.9 -0.6
v 0.7 1.8 -0.6
v 0.7 1.9 -0.6
v 0.8 1.8 -0.6
v 0.8 1.9 -0.6
v -0.9 1.9 -0.7
v -0.9 2 -0.7
v -0.8 1.9 -0.7
v -0.8 2 -0.7
v 0.8 1.9 -0.7
v 0.8 2 -0.7
v 0.9 1.9 -0.7
v 0.9 2 -0.7
v -0.9 1.8 -0.8
v -0.9 1.9 -0.8
v -0.8 1.8 -0.8
v -0.8 1.9 -0.8
v 0.8 1.8 -0.8
v 0.8 1.9 -0.8
v 0.9 1.8 -0.8
v 0.9 1.9 -0.8
v -1 1.9 -0.9
v -1 2 -0.9
v -0.9 1.9 -0.9
v -0.9 2 -0.9
v 0.9 1.9 -0.9
v 0.9 2 -0.9
v 1 1.9 -0.9
v 1 2 -0.9
v -1 1.8 -1
v -1 1.9 -1
v -0.9 1.8 -1
v -0.9 1.9 -1
v 0.9 1.8 -1
v 0.9 1.9 -1
v 1 1.8 -1
v 1 1.9 -1
v -1 1.8 -1.1
v -1 1.9 -1.1
v -1 2 -1.1
v 1 1.8 -1.1
v 1 1.9 -1.1
v 1 2 -1.1
v -0.1 1.8 0.8
v 0.1 1.8 0.8
v -0.2 1.8 0.6
v -0.1 1.8 0.6
v 0.1 1.8 0.6
v 0.2 1.8 0.6
v -0.3 1.8 0.4
v -0.2 1.8 0.4
v -0.1 1.8 0.4
v 0.1 1.8 0.4
v 0.2 1.8 0.4
v 0.3 1.8 0.4
v -0.4 1.8 0.2
v -0.3 1.8 0.2
v -0.2 1.8 0.2
v 0.2 1.8 0.2
v 0.3 1.8 0.2
v 0.4 1.8 0.2
v -0.5 1.8 0
v -0.4 1.8 0
v -0.3 1.8 0
v 0.3 1.8 0
v 0.4 1.8 0
v 0.5 1.8 0
v -0.6 1.8 -0.2
v -0.5 1.8 -0.2
v -0.4 1.8 -0.2
v 0.4 1.8 -0.2
v 0.5 1.8 -0.2
v 0.6 1.8 -0.2
v -0.7 1.8 -0.4
v -0.6 1.8 -0.4
v -0.5 1.8 -0.4
v 0.5 1.8 -0.4
v 0.6 1.8 -0.4
v 0.7 1.8 -0.4
v -0.8 1.8 -0.6
v -0.7 1.8 -0.6
v -0.6 1.8 -0.6
v 0.6 1.8 -0.6
v 0.7 1.8 -0.6
v 0.8 1.8 -0.6
v -0.9 1.8 -0.8
v -0.8 1.8 -0.8
v -0.7 1.8 -0.8
v 0.7 1.8 -0.8
v 0.8 1.8 -0.8
v 0.9 1.8 -0.8
v -1 1.8 -1
v -0.9 1.8 -1
v -0.8 1.8 -1
v 0.8 1.8 -1
v 0.9 1.8 -1
v 1 1.8 -1
v -1 1.8 -1.1
v 1 1.8 -1.1
v -0.1 1.9 0.9
v 0.1 1.9 0.9
v -0.1 1.9 0.8
v 0.1 1.9 0.8
v -0.2 1.9 0.7
v -0.1 1.9 0.7
v 0.1 1.9 0.7
v 0.2 1.9 0.7
v -0.2 1.9 0.6
v -0.1 1.9 0.6
v 0.1 1.9 0.6
v 0.2 1.9 0.6
v -0.3 1.9 0.5
v -0.2 1.9 0.5
v 0.2 1.9 0.5
v 0.3 1.9 0.5
v -0.3 1.9 0.4
v -0.2 1.9 0.4
v 0.2 1.9 0.4
v 0.3 1.9 0.4
v -0.4 1.9 0.3
v -0.3 1.9 0.3
v 0.3 1.9 0.3
v 0.4 1.9 0.3
v -0.4 1.9 0.2
v -0.3 1.9 0.2
v 0.3 1.9 0.2
v 0.4 1.9 0.2
v -0.5 1.9 0.1
v -0.4 1.9 0.1
v 0.4 1.9 0.1
v 0.5 1.9 0.1
v -0.5 1.9 0
v -0.4 1.9 0
v 0.4 1.9 0
v 0.5 1.9 0
v -0.6 1.9 -0.1
v -0.5 1.9 -0.1
v 0.5 1.9 -0.1
v 0.6 1.9 -0.1
v -0.6 1.9 -0.2
v -0.5 1.9 -0.2
v 0.5 1.9 -0.2
v 0.6 1.9 -0.2
v -0.7 1.9 -0.3
v -0.6 1.9 -0.3
v 0.6 1.9 -0.3
v 0.7 1.9 -0.3
v -0.7 1.9 -0.4
v -0.6 1.9 -0.4
v 0.6 1.9 -0.4
v 0.7 1.9 -0.4
v -0.8 1.9 -0.5
v -0.7 1.9 -0.5
v 0.7 1.9 -0.5
v 0.8 1.9 -0.5
v -0.8 1.9 -0.6
v -0.7 1.9 -0.6
v 0.7 1.9 -0.6
v 0.8 1.9 -0.6
v -0.9 1.9 -0.7
v -0.8 1.9 -0.7
v 0.8 1.9 -0.7
v 0.9 1.9 -0.7
v -0.9 1.9 -0.8
v -0.8 1.9 -0.8
v 0.8 1.9 -0.8
v 0.9 1.9 -0.8
v -1 1.9 -0.9
v -0.9 1.9 -0.9
v 0.9 1.9 -0.9
v 1 1.9 -0.9
v -1 1.9 -1
v -0.9 1.9 -1
v 0.9 1.9 -1
v 1 1.9 -1
v -0.1 2 0.9
v 0.1 2 0.9
v -0.2 2 0.7
v -0.1 2 0.7
v 0.1 2 0.7
v 0.2 2 0.7
v -0.3 2 0.5
v -0.2 2 0.5
v -0.1 2 0.5
v 0.1 2 0.5
v 0.2 2 0.5
v 0.3 2 0.5
v -0.4 2 0.3
v -0.3 2 0.3
v -0.2 2 0.3
v 0.2 2 0.3
v 0.3 2 0.3
v 0.4 2 0.3
v -0.5 2 0.1
v -0.4 2 0.1
v -0.3 2 0.1
v 0.3 2 0.1
v 0.4 2 0.1
v 0.5 2 0.1
v -0.6 2 -0.1
v -0.5 2 -0.1
v -0.4 2 -0.1
v 0.4 2 -0.1
v 0.5 2 -0.1
v 0.6 2 -0.1
v -0.7 2 -0.3
v -0.6 2 -0.3
v -0.5 2 -0.3
v 0.5 2 -0.3
v 0.6 2 -0.3
v 0.7 2 -0.3
v -0.8 2 -0.5
v -0.7 2 -0.5
v -0.6 2 -0.5
v 0.6 2 -0.5
v 0.7 2 -0.5
v 0.8 2 -0.5
v -0.9 2 -0.7
v -0.8 2 -0.7
v -0.7 2 -0.7
v 0.7 2 -0.7
v 0.8 2 -0.7
v 0.9 2 -0.7
v -1 2 -0.9
v -0.9 2 -0.9
v -0.8 2 -0.9
v 0.8 2 -0.9
v 0.9 2 -0.9
v 1 2 -0.9
v -0.9 2 -1
v -0.5 2 -1
v -0.3 2 -1
v -0.1 2 -1
v 0.1 2 -1
v 0.3 2 -1
v 0.5 2 -1
v 0.9 2 -1
v -1 2 -1.1
v 1 2 -1.1

# faces
f 4/3/1 2/3/1 1/3/1
f 5/3/1 2/3/1 4/3/1
f 6/2/1 4/2/1 3/2/1
f 6/2/1 5/2/1 4/2/1
f 7/2/1 5/2/1 6/2/1
f 11/3/1 9/3/1 8/3/1
f 12/3/1 9/3/1 11/3/1
f 13/3/1 9/3/1 12/3/1
f 14/2/1 11/2/1 10/2/1
f 14/2/1 12/2/1 11/2/1
f 15/2/1 12/2/1 14/2/1
f 19/3/1 17/3/1 16/3/1
f 20/3/1 17/3/1 19/3/1
f 21/3/1 17/3/1 20/3/1
f 22/2/1 19/2/1 18/2/1
f 22/2/1 20/2/1 19/2/1
f 23/2/1 20/2/1 22/2/1
f 27/3/1 25/3/1 24/3/1
f 28/3/1 25/3/1 27/3/1
f 29/3/1 25/3/1 28/3/1
f 30/2/1 27/2/1 26/2/1
f 30/2/1 28/2/1 27/2/1
f 31/2/1 28/2/1 30/2/1
f 35/3/1 33/3/1 32/3/1
f 36/3/1 33/3/1 35/3/1
f 37/3/1 33/3/1 36/3/1
f 38/2/1 35/2/1 34/2/1
f 38/2/1 36/2/1 35/2/1
f 39/2/1 36/2/1 38/2/1
f 43/3/1 41/3/1 40/3/1
f 44/3/1 41/3/1 43/3/1
f 45/3/1 41/3/1 44/3/1
f 46/2/1 43/2/1 42/2/1
f 46/2/1 44/2/1 43/2/1
f 47/2/1 44/2/1 46/2/1
f 51/3/1 49/3/1 48/3/1
f 52/3/1 49/3/1 51/3/1
f 53/3/1 49/3/1 52/3/1
f 54/2/1 51/2/1 50/2/1
f 54/2/1 52/2/1 51/2/1
f 55/2/1 52/2/1 54/2/1
f 59/3/1 57/3/1 56/3/1
f 60/3/1 57/3/1 59/3/1
f 61/3/1 57/3/1 60/3/1
f 62/2/1 59/2/1 58/2/1
f 62/2/1 60/2/1 59/2/1
f 63/2/1 60/2/1 62/2/1
f 67/3/1 65/3/1 64/3/1
f 68/3/1 65/3/1 67/3/1
f 69/3/1 65/3/1 68/3/1
f 70/2/1 67/2/1 66/2/1
f 70/2/1 68/2/1 67/2/1
f 71/2/1 68/2/1 70/2/1
f 75/4/1 73/4/1 72/4/1
f 76/4/1 73/4/1 75/4/1
f 77/4/1 73/4/1 76/4/1
f 78/1/1 75/1/1 74/1/1
f 78/1/1 76/1/1 75/1/1
f 79/1/1 76/1/1 78/1/1
f 80/4/2 81/4/2 83/4/2
f 83/4/2 81/4/2 84/4/2
f 84/4/2 81/4/2 85/4/2
f 82/1/2 83/1/2 86/1/2
f 83/1/2 84/1/2 86/1/2
f 86/1/2 84/1/2 87/1/2
f 88/3/2 89/3/2 91/3/2
f 91/3/2 89/3/2 92/3/2
f 92/3/2 89/3/2 93/3/2
f 90/2/2 91/2/2 94/2/2
f 91/2/2 92/2/2 94/2/2
f 94/2/2 92/2/2 95/2/2
f 96/3/2 97/3/2 99/3/2
f 99/3/2 97/3/2 100/3/2
f 100/3/2 97/3/2 101/3/2
f 98/2/2 99/2/2 102/2/2
f 99/2/2 100/2/2 102/2/2
f 102/2/2 100/2/2 103/2/2
f 104/3/2 105/3/2 107/3/2
f 107/3/2 105/3/2 108/3/2
f 108/3/2 105/3/2 109/3/2
f 106/2/2 107/2/2 110/2/2
f 107/2/2 108/2/2 110/2/2
f 110/2/2 108/2/2 111/2/2
f 112/3/2 113/3/2 115/3/2
f 115/3/2 113/3/2 116/3/2
f 116/3/2 113/3/2 117/3/2
f 114/2/2 115/2/2 118/2/2
f 115/2/2 116/2/2 118/2/2
f 118/2/2 116/2/2 119/2/2
f 120/3/2 121/3/2 123/3/2
f 123/3/2 121/3/2 124/3/2
f 124/3/2 121/3/2 125/3/2
f 122/2/2 123/2/2 126/2/2
f 123/2/2 124/2/2 126/2/2
f 126/2/2 124/2/2 127/2/2
f 128/3/2 129/3/2 131/3/2
f 131/3/2 129/3/2 132/3/2
f 132/3/2 129/3/2 133/3/2
f 130/2/2 131/2/2 134/2/2
f 131/2/2 132/2/2 134/2/2
f 134/2/2 132/2/2 135/2/2
f 136/3/2 137/3/2 139/3/2
f 139/3/2 137/3/2 140/3/2
f 140/3/2 137/3/2 141/3/2
f 138/2/2 139/2/2 142/2/2
f 139/2/2 140/2/2 142/2/2
f 142/2/2 140/2/2 143/2/2
f 144/3/2 145/3/2 147/3/2
f 147/3/2 145/3/2 148/3/2
f 148/3/2 145/3/2 149/3/2
f 146/2/2 147/2/2 150/2/2
f 147/2/2 148/2/2 150/2/2
f 150/2/2 148/2/2 151/2/2
f 152/3/2 153/3/2 155/3/2
f 155/3/2 153/3/2 156/3/2
f 154/2/2 155/2/2 157/2/2
f 155/2/2 156/2/2 157/2/2
f 157/2/2 156/2/2 158/2/2
f 161/1/3 160/1/3 159/1/3
f 162/1/3 160/1/3 161/1/3
f 165/4/3 164/4/3 163/4/3
f 166/4/3 164/4/3 165/4/3
f 169/2/3 168/2/3 167/2/3
f 170/2/3 168/2/3 169/2/3
f 173/2/3 172/2/3 171/2/3
f 174/2/3 172/2/3 173/2/3
f 177/3/3 176/3/3 175/3/3
f 178/3/3 176/3/3 177/3/3
f 181/3/3 180/3/3 179/3/3
f 182/3/3 180/3/3 181/3/3
f 185/2/3 184/2/3 183/2/3
f 186/2/3 184/2/3 185/2/3
f 189/2/3 188/2/3 187/2/3
f 190/2/3 188/2/3 189/2/3
f 193/3/3 192/3/3 191/3/3
f 194/3/3 192/3/3 193/3/3
f 197/3/3 196/3/3 195/3/3
f 198/3/3 196/3/3 197/3/3
f 201/2/3 200/2/3 199/2/3
f 202/2/3 200/2/3 201/2/3
f 205/2/3 204/2/3 203/2/3
f 206/2/3 204/2/3 205/2/3
f 209/3/3 208/3/3 207/3/3
f 210/3/3 208/3/3 209/3/3
f 213/3/3 212/3/3 211/3/3
f 214/3/3 212/3/3 213/3/3
f 217/2/3 216/2/3 215/2/3
f 218/2/3 216/2/3 217/2/3
f 221/2/3 220/2/3 219/2/3
f 222/2/3 220/2/3 221/2/3
f 225/3/3 224/3/3 223/3/3
f 226/3/3 224/3/3 225/3/3
f 229/3/3 228/3/3 227/3/3
f 230/3/3 228/3/3 229/3/3
f 233/2/3 232/2/3 231/2/3
f 234/2/3 232/2/3 233/2/3
f 237/2/3 236/2/3 235/2/3
f 238/2/3 236/2/3 237/2/3
f 241/3/3 240/3/3 239/3/3
f 242/3/3 240/3/3 241/3/3
f 245/3/3 244/3/3 243/3/3
f 246/3/3 244/3/3 245/3/3
f 249/2/3 248/2/3 247/2/3
f 250/2/3 248/2/3 249/2/3
f 253/2/3 252/2/3 251/2/3
f 254/2/3 252/2/3 253/2/3
f 257/3/3 256/3/3 255/3/3
f 258/3/3 256/3/3 257/3/3
f 261/3/3 260/3/3 259/3/3
f 262/3/3 260/3/3 261/3/3
f 265/2/3 264/2/3 263/2/3
f 266/2/3 264/2/3 265/2/3
f 269/2/3 268/2/3 267/2/3
f 270/2/3 268/2/3 269/2/3
f 273/3/3 272/3/3 271/3/3
f 274/3/3 272/3/3 273/3/3
f 277/3/3 276/3/3 275/3/3
f 278/3/3 276/3/3 277/3/3
f 281/2/3 280/2/3 279/2/3
f 282/2/3 280/2/3 281/2/3
f 285/2/3 284/2/3 283/2/3
f 286/2/3 284/2/3 285/2/3
f 289/3/3 288/3/3 287/3/3
f 290/3/3 288/3/3 289/3/3
f 293/3/3 292/3/3 291/3/3
f 294/3/3 292/3/3 293/3/3
f 297/2/3 296/2/3 295/2/3
f 298/2/3 296/2/3 297/2/3
f 301/2/3 300/2/3 299/2/3
f 302/2/3 300/2/3 301/2/3
f 305/3/3 304/3/3 303/3/3
f 306/3/3 304/3/3 305/3/3
f 309/3/3 308/3/3 307/3/3
f 310/3/3 308/3/3 309/3/3
f 311/3/4 312/3/4 314/3/4
f 312/2/4 313/2/4 315/2/4
f 314/3/4 312/3/4 315/3/4
f 315/2/4 313/2/4 316/2/4
f 320/4/5 318/4/5 317/4/5
f 321/4/5 318/4/5 320/4/5
f 324/3/5 320/3/5 319/3/5
f 325/4/5 321/4/5 320/4/5
f 325/3/5 320/3/5 324/3/5
f 326/3/5 322/3/5 321/3/5
f 326/4/5 321/4/5 325/4/5
f 327/3/5 322/3/5 326/3/5
f 330/3/5 324/3/5 323/3/5
f 331/4/5 325/4/5 324/4/5
f 331/4/5 326/4/5 325/4/5
f 331/3/5 324/3/5 330/3/5
f 331/4/5 327/4/5 326/4/5
f 332/3/5 328/3/5 327/3/5
f 332/4/5 327/4/5 331/4/5
f 333/3/5 328/3/5 332/3/5
f 336/3/5 330/3/5 329/3/5
f 337/4/5 331/4/5 330/4/5
f 337/4/5 332/4/5 331/4/5
f 337/3/5 330/3/5 336/3/5
f 337/4/5 333/4/5 332/4/5
f 338/3/5 334/3/5 333/3/5
f 338/4/5 333/4/5 337/4/5
f 339/3/5 334/3/5 338/3/5
f 342/3/5 336/3/5 335/3/5
f 343/4/5 337/4/5 336/4/5
f 343/4/5 338/4/5 337/4/5
f 343/3/5 336/3/5 342/3/5
f 343/4/5 339/4/5 338/4/5
f 344/3/5 340/3/5 339/3/5
f 344/4/5 339/4/5 343/4/5
f 345/3/5 340/3/5 344/3/5
f 348/3/5 342/3/5 341/3/5
f 349/4/5 343/4/5 342/4/5
f 349/4/5 344/4/5 343/4/5
f 349/3/5 342/3/5 348/3/5
f 349/4/5 345/4/5 344/4/5
f 350/3/5 346/3/5 345/3/5
f 350/4/5 345/4/5 349/4/5
f 351/3/5 346/3/5 350/3/5
f 354/3/5 348/3/5 347/3/5
f 355/4/5 349/4/5 348/4/5
f 355/4/5 350/4/5 349/4/5
f 355/3/5 348/3/5 354/3/5
f 355/4/5 351/4/5 350/4/5
f 356/3/5 352/3/5 351/3/5
f 356/4/5 351/4/5 355/4/5
f 357/3/5 352/3/5 356/3/5
f 360/3/5 354/3/5 353/3/5
f 361/4/5 355/4/5 354/4/5
f 361/4/5 356/4/5 355/4/5
f 361/3/5 354/3/5 360/3/5
f 361/4/5 357/4/5 356/4/5
f 362/3/5 358/3/5 357/3/5
f 362/4/5 357/4/5 361/4/5
f 363/3/5 358/3/5 362/3/5
f 366/3/5 360/3/5 359/3/5
f 367/4/5 361/4/5 360/4/5
f 367/4/5 362/4/5 361/4/5
f 367/3/5 360/3/5 366/3/5
f 367/4/5 363/4/5 362/4/5
f 368/3/5 364/3/5 363/3/5
f 368/4/5 363/4/5 367/4/5
f 369/3/5 364/3/5 368/3/5
f 371/3/5 366/3/5 365/3/5
f 371/3/5 370/3/5 369/3/5
f 371/3/5 369/3/5 368/3/5
f 371/3/5 368/3/5 367/3/5
f 371/3/5 367/3/5 366/3/5
f 372/3/5 370/3/5 371/3/5
f 375/1/5 374/1/5 373/1/5
f 376/1/5 374/1/5 375/1/5
f 381/2/5 378/2/5 377/2/5
f 382/2/5 378/2/5 381/2/5
f 383/2/5 380/2/5 379/2/5
f 384/2/5 380/2/5 383/2/5
f 389/2/5 386/2/5 385/2/5
f 390/2/5 386/2/5 389/2/5
f 391/2/5 388/2/5 387/2/5
f 392/2/5 388/2/5 391/2/5
f 397/2/5 394/2/5 393/2/5
f 398/2/5 394/2/5 397/2/5
f 399/2/5 396/2/5 395/2/5
f 400/2/5 396/2/5 399/2/5
f 405/2/5 402/2/5 401/2/5
f 406/2/5 402/2/5 405/2/5
f 407/2/5 404/2/5 403/2/5
f 408/2/5 404/2/5 407/2/5
f 413/2/5 410/2/5 409/2/5
f 414/2/5 410/2/5 413/2/5
f 415/2/5 412/2/5 411/2/5
f 416/2/5 412/2/5 415/2/5
f 421/2/5 418/2/5 417/2/5
f 422/2/5 418/2/5 421/2/5
f 423/2/5 420/2/5 419/2/5
f 424/2/5 420/2/5 423/2/5
f 429/2/5 426/2/5 425/2/5
f 430/2/5 426/2/5 429/2/5
f 431/2/5 428/2/5 427/2/5
f 432/2/5 428/2/5 431/2/5
f 437/2/5 434/2/5 433/2/5
f 438/2/5 434/2/5 437/2/5
f 439/2/5 436/2/5 435/2/5
f 440/2/5 436/2/5 439/2/5
f 445/2/5 442/2/5 441/2/5
f 446/2/5 442/2/5 445/2/5
f 447/2/5 444/2/5 443/2/5
f 448/2/5 444/2/5 447/2/5
f 449/1/6 450/1/6 452/1/6
f 452/1/6 450/1/6 453/1/6
f 451/2/6 452/2/6 456/2/6
f 452/1/6 453/1/6 457/1/6
f 456/2/6 452/2/6 457/2/6
f 453/2/6 454/2/6 458/2/6
f 457/1/6 453/1/6 458/1/6
f 458/2/6 454/2/6 459/2/6
f 455/2/6 456/2/6 462/2/6
f 456/4/6 457/4/6 463/4/6
f 462/2/6 456/2/6 463/2/6
f 459/2/6 460/2/6 464/2/6
f 458/4/6 459/4/6 464/4/6
f 464/2/6 460/2/6 465/2/6
f 461/2/6 462/2/6 468/2/6
f 462/4/6 463/4/6 469/4/6
f 468/2/6 462/2/6 469/2/6
f 465/2/6 466/2/6 470/2/6
f 464/4/6 465/4/6 470/4/6
f 470/2/6 466/2/6 471/2/6
f 467/2/6 468/2/6 474/2/6
f 468/1/6 469/1/6 475/1/6
f 474/2/6 468/2/6 475/2/6
f 471/2/6 472/2/6 476/2/6
f 470/1/6 471/1/6 476/1/6
f 476/2/6 472/2/6 477/2/6
f 473/2/6 474/2/6 480/2/6
f 474/1/6 475/1/6 481/1/6
f 480/2/6 474/2/6 481/2/6
f 477/2/6 478/2/6 482/2/6
f 476/1/6 477/1/6 482/1/6
f 482/2/6 478/2/6 483/2/6
f 479/2/6 480/2/6 486/2/6
f 480/4/6 481/4/6 487/4/6
f 486/2/6 480/2/6 487/2/6
f 483/2/6 484/2/6 488/2/6
f 482/4/6 483/4/6 488/4/6
f 488/2/6 484/2/6 489/2/6
f 485/2/6 486/2/6 492/2/6
f 486/4/6 487/4/6 493/4/6
f 492/2/6 486/2/6 493/2/6
f 489/2/6 490/2/6 494/2/6
f 488/4/6 489/4/6 494/4/6
f 494/2/6 490/2/6 495/2/6
f 491/2/6 492/2/6 498/2/6
f 492/4/6 493/4/6 499/4/6
f 498/2/6 492/2/6 499/2/6
f 495/2/6 496/2/6 500/2/6
f 494/4/6 495/4/6 500/4/6
f 500/2/6 496/2/6 501/2/6
f 497/2/6 498/2/6 503/2/6
f 498/4/6 499/4/6 503/4/6
f 481/1/6 475/1/6 504/1/6
f 503/4/6 499/4/6 504/4/6
f 487/4/6 481/4/6 504/4/6
f 493/4/6 487/4/6 504/4/6
f 499/4/6 493/4/6 504/4/6
f 469/4/6 463/4/6 505/4/6
f 504/1/6 475/1/6 505/1/6
f 475/1/6 469/1/6 505/1/6
f 463/4/6 457/4/6 506/4/6
f 505/4/6 463/4/6 506/4/6
f 457/1/6 458/1/6 506/1/6
f 458/4/6 464/4/6 507/4/6
f 506/1/6 458/1/6 507/1/6
f 464/4/6 470/4/6 507/4/6
f 470/1/6 476/1/6 508/1/6
f 507/4/6 470/4/6 508/4/6
f 476/1/6 482/1/6 508/1/6
f 488/4/6 494/4/6 509/4/6
f 508/1/6 482/1/6 509/1/6
f 494/4/6 500/4/6 509/4/6
f 482/4/6 488/4/6 509/4/6
f 500/4/6 501/4/6 509/4/6
f 501/2/6 502/2/6 510/2/6
f 509/4/6 501/4/6 510/4/6
f 503/2/6 504/2/6 511/2/6
f 504/2/6 505/2/6 511/2/6
f 509/2/6 510/2/6 511/2/6
f 507/2/6 508/2/6 511/2/6
f 505/2/6 506/2/6 511/2/6
f 506/2/6 507/2/6 511/2/6
f 497/2/6 503/2/6 511/2/6
f 508/2/6 509/2/6 511/2/6
f 510/2/6 502/2/6 512/2/6
f 511/2/6 510/2/6 512/2/6
